<?xml version="1.0" encoding="UTF-8"?>
<svg width="1200pt" height="1200pt" version="1.1" viewBox="0 0 1200 1200" xmlns="http://www.w3.org/2000/svg">
 <path d="m849.62 229.7c-4.1211 0-8.1523 1.9961-10.449 5.9258l-106.23 199.83h-0.003906c-0.73828 2.5742-2.7148 4.6133-5.2695 5.4336-1.8281 0.6875-3.8438 0.6875-5.6719 0-11.938-2.25-25.535 3.5625-32.105 14.008-12.883 22.078-25.605 44.309-38.453 66.492-1.0391 1.9062-2.8008 3.3125-4.8945 3.8984-2.0898 0.58984-4.3281 0.30469-6.207-0.78516-1.8828-1.0859-3.2422-2.8906-3.7695-4.9961-0.53125-2.1055-0.19141-4.3359 0.94922-6.1875 12.859-22.203 25.625-44.508 38.594-66.73 0.046876-0.074219 0.09375-0.15234 0.14063-0.22656 7.957-12.684 21.586-20.668 36.062-21.945 2.7461-0.22656 5.5273-0.22656 8.3047 0l28.395-53.406c-2.5898-2.1328-5.3438-4.0508-8.2383-5.7227-13.5-7.793-29.918-10.414-46.27-5.9648-28.867 7.8555-47.375 34.992-45.379 63.789 0.44531 1.2383 0.58203 2.5703 0.39453 3.875 0.33984 2.5508 0.82422 5.1016 1.4961 7.6523 0.63672 2.0898 0.39453 4.3516-0.67187 6.2617-1.0664 1.9062-2.8633 3.3008-4.9766 3.8594-2.1133 0.55469-4.3633 0.23047-6.2344-0.90625-1.8672-1.1367-3.1914-2.9844-3.6719-5.1172-0.55859-2.1094-0.99609-4.2266-1.3711-6.3359-24.227-4.4648-48.172 5.793-62.094 25.164-0.44531 1.1875-1.1641 2.2539-2.1016 3.1094-3.4258 5.4141-6.1094 11.453-7.8516 18.016-4.1484 15.625-2.1953 31.352 4.3359 44.75 46.281 3.8086 87.812 34.531 103.52 80.508 23.953-22.5 55.461-35.418 86.492-42.379l0.003906-0.003907h0.17188c14.535-2.9336 29.996-4.8867 45.426-4.3516 15.406 0.53516 30.785 3.5703 45.164 10.551 20.023 9.3945 32.84 30.523 31.395 52.652-1.2695 25.828-13.484 48.879-28.387 68.426h39.109c19.691-22.422 19.441-56.062-0.66797-76.59-0.066406-0.074218-0.13281-0.15234-0.19922-0.23047h-0.054688c-2.1797-2.3594-2.7461-5.7852-1.4453-8.7188 1.3008-2.9336 4.2227-4.8164 7.4336-4.7852 0.28906-0.015626 0.57812-0.015626 0.87109 0 27.023-0.55859 48.773-22.668 48.867-49.965 0.085937-27.434-21.629-49.359-48.84-49.527-2.457 0.15625-4.8516-0.82031-6.4961-2.6523-1.6445-1.8281-2.3633-4.3125-1.9492-6.7383 0.042969-0.27344 0.10156-0.54297 0.17188-0.8125 4.8555-18.047 2.8945-37.824-7.0742-55.227-19.531-34.098-65.727-47.047-100.21-28.219l-24.387 39.023c10.914 15.352 11.617 36.656 1.2773 52.82l0.17188-0.30469-36.906 63.914-0.003906 0.003906c-1.0312 1.9141-2.793 3.3281-4.8867 3.9219s-4.3359 0.31641-6.2188-0.76953c-1.8867-1.0898-3.25-2.8945-3.7812-5-0.53125-2.1094-0.1875-4.3438 0.95312-6.1953l36.906-63.914-0.003906-0.003906c0.066406-0.10156 0.13281-0.20312 0.20312-0.30078 7.0312-10.992 5.8125-27.113-2.4922-36.902v-0.003906c-2.2852-1.6914-3.5039-4.4648-3.2109-7.293 0.125-1.7773 0.83594-3.4609 2.0195-4.7891l27.715-44.348c0.035156-0.078126 0.074218-0.15234 0.11328-0.22656l92.23-147.59c3.3359-5.7734 1.4414-12.852-4.207-16.113-1.7617-1.0234-3.668-1.5312-5.5508-1.5781zm-293.39 101.77c-30.469 0-60.312 16.102-77.68 41.078 7.8984 1.7383 15.668 4.6875 23.059 8.8984 13.488-16.648 34.336-26.219 55.488-26.285 7.7891-0.023438 15.609 1.2539 23.121 3.9219 24.953 8.2617 43.719 30.473 47.816 56.328 1.6328 0 3.2695 0.28516 4.9062 0.48828 0.46094-11.715 3.5938-23.035 8.9258-33.184-15.496-29.992-48.391-50.727-82.172-51.191h-0.17188-3.2891zm-97.031 55.16c-22.613 0.48828-44.391 12.551-56.586 33.84v-0.003906c-1.0234 1.9219-2.7852 3.3477-4.875 3.9531-2.0938 0.60156-4.3398 0.33203-6.2305-0.75s-3.2617-2.8867-3.8008-4.9961c-0.53516-2.1094-0.19531-4.3477 0.94531-6.2031 0.50391-0.88281 1.0352-1.7383 1.5664-2.6094-43.969-21.082-97.066-5.207-121.73 37.629-25.723 44.68-10.648 101.61 33.707 127.99l-0.003906-0.003906c1.3945 0.55469 2.6016 1.4883 3.4922 2.6953 0.089843 0.11328 0.17578 0.22656 0.25781 0.34766 1.2891 1.8164 1.7656 4.0898 1.3164 6.2734-0.44922 2.1836-1.7812 4.0859-3.6836 5.2461-21.562 22.816-20.996 58.699 1.7461 81.332 11.59 11.535 26.652 17.305 41.715 17.387v0.003906c0.066406-0.003906 0.13672-0.003906 0.20312 0h14.703c-14.578-29.191-28.25-59.113-38.895-90.34-7.5469-21.125-3.1211-45.965 13.262-62.191 5.4375-5.4609 11.641-10.031 18.332-13.684l-65.172-47.984-0.003906-0.003906c-2.2148-1.6328-3.4414-4.2891-3.2461-7.0391 0.19141-2.75 1.7773-5.207 4.2031-6.5156 6.4336-3.4688 13.574-5.7344 21.043-6.6172 7.4688-0.88281 15.258-0.39453 22.992 1.6953 12.898 3.4609 23.758 10.848 31.465 20.449l5.1602-46.531-0.007813-0.003906c0.4375-3.9297 3.6641-6.9648 7.6172-7.1523 1.6211-0.078124 3.2266 0.33203 4.6094 1.1836 12.438 7.6797 22.133 20.234 26.273 35.703 5.0938 19.031 0.59766 38.492-10.566 52.527 4.6523 0.22656 9.2891 0.78906 13.859 1.7891 22.801 4.7852 40.523 23.465 45.203 45.961 0.91016 3.8945 1.6641 7.7734 2.3594 11.648 15.133-20.562 36.895-36.488 63.289-44.051 7.9336-2.2734 15.914-3.6797 23.836-4.2891h1.293c-5.6094-15.082-6.7891-32.027-2.3555-48.742 1.7461-6.5742 4.2773-12.73 7.4414-18.418-17.957-13.848-43.449-12.531-59.816 3.9453h-0.003906c-3.1406 3.1133-8.2031 3.1133-11.34-0.003906-3.1367-3.1172-3.1719-8.1836-0.078125-11.344 11.281-11.359 25.941-17.352 40.809-17.996-5.2461-14.246-15.227-26.773-29.316-34.973-11.047-6.4258-23.125-9.3477-34.969-9.0898zm360.72 56.891h2.5156c4.4609 0.37109 8.8828 1.6719 13.008 4.0391 16.508 9.457 20.688 31.523 10.777 48.59-4.957 8.5312-13.363 16.676-22.871 22.527-4.7539 2.9258-9.793 5.2539-15.102 6.3594-5.3125 1.1133-11.242 0.92969-16.492-2.0664-5.25-3.0078-8.3867-8.0586-10.09-13.199s-2.2031-10.645-2.0312-16.207c0.34375-11.125 3.2422-22.445 8.1992-30.977 6.9688-11.996 19.512-19.223 32.086-19.168zm-434.61 3.8516-6.8516 61.871c13.398-9.5195 20.426-27.145 15.551-45.344-1.7148-6.3906-4.8672-11.816-8.6992-16.527zm321.05 10.805v-0.003906c2.8828 0.023437 5.5312 1.5898 6.9414 4.1016 1.4141 2.5117 1.3789 5.5859-0.097656 8.0625l-37.5 64.957c-1.0273 1.918-2.793 3.3359-4.8867 3.9297-2.0938 0.59766-4.3398 0.32031-6.2227-0.76953-1.8867-1.0859-3.25-2.8945-3.7812-5.0039-0.53516-2.1094-0.1875-4.3477 0.95703-6.1992l37.5-64.961c1.4336-2.5625 4.1523-4.1445 7.0898-4.1172zm112.75 1.4609c-1.7578 0-3.543 0.37109-5.293 0.97266-4.6641 1.5781-9.0742 5.0078-12.082 10.184-3.0039 5.1758-5.7695 15.012-6.0273 23.383-0.14453 4.1836 0.35547 8.0156 1.2266 10.645 0.875 2.6289 1.9141 3.793 2.8047 4.3008 0.89062 0.51172 2.4609 0.83594 5.2148 0.25781 2.7539-0.57812 6.3398-2.0898 9.9297-4.3047 7.1836-4.4219 14.391-11.73 17.398-16.906 6.0117-10.352 3.1914-21.922-4.8594-26.535-2.5156-1.4414-5.3789-2.0898-8.3125-1.9961zm-191.65 4.6602v-0.003907c2.1758-0.042969 4.2734 0.79688 5.8164 2.3281 1.5469 1.5273 2.4062 3.6172 2.3867 5.793-0.019531 2.1719-0.91406 4.2461-2.4883 5.7461-1.5703 1.5039-3.6836 2.3047-5.8555 2.2227-12.758 0-22.871 10.098-22.828 22.969 0.082031 2.1875-0.73047 4.3086-2.2461 5.8828-1.5195 1.5742-3.6094 2.4648-5.7969 2.4648s-4.2773-0.89062-5.7969-2.4648c-1.5156-1.5742-2.3281-3.6953-2.2461-5.8828-0.058594-21.531 17.477-39.195 38.973-39.117h0.085938zm98.766 5.3633h0.003907c2.8789 0.023437 5.5273 1.5898 6.9414 4.1016s1.375 5.5859-0.097656 8.0625l-37.504 64.949v-0.003906c-1.0312 1.9141-2.7969 3.332-4.8867 3.9258-2.0938 0.58984-4.3359 0.3125-6.2227-0.77344-1.8828-1.0898-3.2461-2.8906-3.7773-5-0.53516-2.1094-0.19141-4.3438 0.94922-6.1953l37.5-64.949c1.4336-2.5664 4.1562-4.1445 7.0977-4.1172zm-280.23 0.22656c21.59 0 39.223 17.668 39.148 39.297h0.003907c0.023437 2.1484-0.81641 4.2188-2.3281 5.7461-1.5117 1.5273-3.5703 2.3867-5.7227 2.3867-2.1484 0-4.207-0.85938-5.7188-2.3867-1.5117-1.5273-2.3516-3.5977-2.3281-5.7461 0.058594-12.969-10.141-23.191-22.992-23.148-4.3906-0.0625-7.9219-3.6328-7.9375-8.0234s3.4883-7.9844 7.8789-8.0742zm-128.54 0.30469c-1.3945 0-2.7773 0.22656-4.1445 0.30469-0.60156 0-1.0898 0.44141-1.6836 0.53516l50.082 36.883c-1.5352-16.383-13.273-31.281-31.449-36.156-4.3125-1.1602-8.6172-1.6484-12.801-1.5547zm543.52 47.109v-0.003906h0.058594c23.145 0 42.031 18.918 41.953 42.109 0.082031 2.1875-0.73047 4.3125-2.2461 5.8867-1.5195 1.5742-3.6133 2.4648-5.7969 2.4648-2.1875 0-4.2812-0.89062-5.7969-2.4648-1.5195-1.5742-2.3281-3.6992-2.2461-5.8867 0.058593-14.531-11.398-26.012-25.809-25.961-2.1758 0.078125-4.2891-0.72656-5.8594-2.2305-1.5703-1.5039-2.4688-3.5781-2.4805-5.7539-0.015625-2.1758 0.84766-4.2656 2.3984-5.793 1.5508-1.5273 3.6523-2.3594 5.8281-2.3125zm-463.89 11.141c-18.117-0.37109-36.777 6.5938-49.402 19.262l-0.015625 0.023437-0.023437 0.023437c-11.484 11.352-14.965 30.023-9.4453 45.414h0.039063c11.156 32.746 25.902 64.391 41.695 95.59h66.301c-1.7617-4.2422-3.3281-8.6133-4.6211-13.133-1.293-4.5195-2.2812-9.0547-3.0273-13.586-2.1875-0.22656-4.5117-0.22656-7.3086-0.015625-9.9414 0.53516-18.91 3.4609-25.051 7.7578v-0.003906c-1.7461 1.293-3.9414 1.8242-6.0859 1.4766-2.1445-0.35156-4.0547-1.5508-5.3008-3.332-1.2461-1.7812-1.7188-3.9883-1.3086-6.125 0.40625-2.1328 1.6602-4.0117 3.4727-5.207 9.2188-6.4492 20.918-9.9648 33.391-10.648 2.293-0.22656 4.4688-0.22656 6.6133 0-0.45312-16.824 2.7227-33.273 8.9141-48.41-8.0898-4.7617-18.562-7.4336-30.289-7.3281-14.273 0.22656-26.836 4.3242-35.574 11.422l0.003907-0.003906c-1.6484 1.4219-3.8008 2.1133-5.9688 1.9219-2.168-0.19141-4.1641-1.25-5.5352-2.9414-1.3711-1.6875-2.0039-3.8594-1.7461-6.0195 0.25391-2.1602 1.375-4.125 3.1016-5.4492 12.121-9.8398 28.254-14.879 45.578-15.035 10.66 0 20.855 1.6719 29.926 5.2969-0.87109-5.3594-1.8438-10.645-3.0547-15.805-3.3477-16.184-16.734-30.172-32.793-33.531l-0.058594-0.019531-0.023437-0.015625c-4.043-0.88281-8.1914-1.3672-12.371-1.4414zm158.14 10.711c-8.9609 0.22656-18.059 1.4414-27.098 4.0391-29.496 8.4531-52.289 28.797-64.691 54.328l0.003906-0.003906c-0.13672 0.35156-0.29297 0.69141-0.47656 1.0195-10.355 21.93-13.105 47.57-5.8828 72.77 1.7695 6.168 4.0781 12.02 6.8203 17.562h37.039c3.3086-3.4258 6.6094-6.8555 9.9141-10.277 1.4336-1.5234 3.4023-2.4336 5.4922-2.5312 3.1016-0.15234 6.0117 1.4961 7.4805 4.2344s1.2305 6.0742-0.61328 8.5781h126.21c11.117-22.352 14.25-48.707 6.8203-74.629-12.449-43.449-50.684-72.359-93.316-74.902l0.003906-0.003906c-1.2344 0.21484-2.5078 0.13672-3.707-0.22656h-0.17188c-1.2734 0-2.5508 0-3.832-0.015626zm-19.707 21.66h0.003906c3.6172 0.019532 6.7773 2.4492 7.7227 5.9375l5.2891 18.453c0.65234 2.0703 0.4375 4.3164-0.58984 6.2305-1.0273 1.9102-2.7852 3.3242-4.8711 3.9219-2.0859 0.60156-4.3281 0.32812-6.2109-0.75-1.8867-1.0742-3.2539-2.8672-3.8008-4.9688l-5.2891-18.449 0.003907-0.003906c-0.73828-2.4414-0.27344-5.0938 1.2539-7.1406 1.5312-2.043 3.9375-3.2461 6.4922-3.2305zm260.64 10.828c-12.203 0-24.625 1.6484-36.668 4.0703-31.965 7.1797-63.512 20.988-85.324 44.449 4.5977 23.77 1.7578 47.574-7.0781 68.715h22.402c-5.8203-12.859-5.6562-28.172 1.2031-40.926 6.9688-13.785 20.699-23.004 35.668-24.988 4.9688-0.65234 10.078-0.48828 15.113 0.53516 19.516 3.4609 35.043 19.602 37.738 39.113 1.3555 8.9453 0 18.105-3.7188 26.262h56.137c17.027-20.16 31.277-43.977 32.504-69.176l0.003906 0.003906v-0.22656c1.0664-15.906-8.582-31.906-23.16-38.73v-0.003906h-0.085937c-13.703-6.668-29.031-9.1992-44.723-9.1445zm-186.43 7.7891h0.003907c3.3164-0.14844 6.3828 1.7539 7.7227 4.7891 1.3398 3.0352 0.67969 6.5859-1.6641 8.9336-4.4453 4.6016-8.8984 9.1914-13.344 13.797-1.4688 1.5938-3.5195 2.5234-5.6875 2.5859-2.1641 0.0625-4.2617-0.75-5.8203-2.2578-1.5586-1.5039-2.4453-3.5742-2.457-5.7422s0.85156-4.2461 2.3906-5.7695c4.4453-4.6016 8.8867-9.2031 13.332-13.805 1.4375-1.5273 3.4102-2.4336 5.5039-2.5273zm-52.375 31.398c1.0469 0.023437 2.0859 0 3.1172 0.22656 12.359 1.5312 23.285 10.25 26.914 22.91 4.8359 16.883-5.0391 34.703-21.922 39.543-16.883 4.8359-34.707-5.0391-39.547-21.922-4.8398-16.883 5.0508-34.707 21.934-39.547 3.1641-0.90625 6.3633-1.3008 9.5039-1.207zm-75.641 5.293 0.003906 0.003906c0.80469-0.035156 1.6133 0.050782 2.3906 0.25391 6.207 1.5547 12.422 3.0977 18.629 4.6484h0.003906c2.1289 0.46094 3.9805 1.7656 5.1328 3.6133 1.1523 1.8516 1.5078 4.0898 0.98047 6.2031-0.53125 2.1172-1.8906 3.9258-3.7773 5.0195-1.8867 1.0898-4.1367 1.3711-6.2344 0.77734-6.207-1.5547-12.422-3.0977-18.629-4.6445v-0.003906c-3.9141-0.92188-6.543-4.5898-6.1641-8.5938 0.37891-4 3.6523-7.1094 7.668-7.2812zm75.336 10.762c-1.5664 0-3.168 0.22656-4.7656 0.625-8.5195 2.4414-13.324 11.109-10.883 19.629 2.4375 8.5195 11.109 13.34 19.629 10.895 8.5195-2.4414 13.324-11.121 10.883-19.641-1.9844-6.9219-8.0781-11.391-14.863-11.516zm176.46 10.152c-12.09-0.28516-24.648 6.8047-30.008 17.484l0.003906 0.003906c-0.035156 0.078125-0.074218 0.15234-0.11328 0.22656-5.6641 10.484-4.3633 24.594 2.7812 34.152h52.645c5.1094-6.7734 7.3984-15.809 6.125-24.145-0.003906-0.074219-0.003906-0.15234 0-0.22656-1.7734-12.973-13.02-24.688-26.07-26.957v-0.003906c-0.078125 0.003906-0.15234 0.003906-0.23047 0-1.6836-0.34766-3.3984-0.53516-5.1289-0.57812zm-121.43 11.617 0.003907 0.003906c0.80469-0.035156 1.6094 0.050782 2.3867 0.25781 6.207 1.5547 12.422 3.0977 18.629 4.6484l0.003907-0.003906c2.1328 0.46094 3.9844 1.7617 5.1406 3.6133 1.1523 1.8516 1.5039 4.0898 0.97656 6.207-0.52734 2.1133-1.8906 3.9258-3.7773 5.0195-1.8906 1.0898-4.1406 1.3711-6.2344 0.77344-6.207-1.5547-12.426-3.0938-18.633-4.6445-3.918-0.91797-6.5547-4.5898-6.1719-8.5977 0.37891-4.0039 3.6602-7.1133 7.6797-7.2773zm-303.07 56.309v56.332c0 91.629 72.465 165.11 162.87 165.65h280.17c90.402-0.53516 162.86-74.02 162.86-165.65v-56.332h-20.664l0.003906 0.003906c-1.0898 0.22656-2.2148 0.22656-3.3047 0h-236.33c-0.15625 0.003906-0.31641 0.003906-0.47656 0zm517.79 29.102h53.887c4.4453 0 8.0508 3.6055 8.0508 8.0508 0 4.4492-3.6055 8.0547-8.0508 8.0547h-53.887 0.003906c-4.4492 0-8.0547-3.6055-8.0547-8.0547 0-4.4453 3.6055-8.0508 8.0547-8.0508zm-32.141 31.902h86.027v0.003906c4.4297 0.023438 8.0078 3.6211 8.0078 8.0508 0 4.4297-3.5781 8.0234-8.0078 8.0508h-86.027c-4.4297-0.027344-8.0078-3.6211-8.0078-8.0508 0-4.4297 3.5781-8.0273 8.0078-8.0508zm-324.79 177.07v27.258h284.17v-27.258h-1.1836c-0.60156 0-1.207 0.023438-1.8125 0.023438h-278.17c-0.60547 0-1.207-0.015625-1.8125-0.023438z" fill="#62ab8d"/>
</svg>
